<svg width="17" height="17" viewBox="0 0 17 17" fill="none" xmlns="http://www.w3.org/2000/svg">
<path fill-rule="evenodd" clip-rule="evenodd" d="M13.2544 3.01562V3.76562V4.26562H13.7544H14.5044V5.76562H13.7544H13.2544V6.26562V7.01562H11.7544V6.26562V5.76562H11.2544H10.5044V4.26562H11.2544H11.7544V3.76562V3.01562H13.2544ZM6.00953 5.52059C5.08852 6.30054 4.50439 7.46534 4.50439 8.76562C4.50439 11.1128 6.40718 13.0156 8.75439 13.0156C10.0547 13.0156 11.2195 12.4315 11.9994 11.5105C11.9182 11.5139 11.8365 11.5156 11.7544 11.5156C8.57875 11.5156 6.00439 8.94126 6.00439 5.76561C6.00439 5.68354 6.00611 5.60186 6.00953 5.52059ZM3.00439 8.76562C3.00439 6.27635 4.58581 4.15833 6.79639 3.35782L7.75695 4.31837C7.59372 4.76909 7.50439 5.25609 7.50439 5.76561C7.50439 8.11282 9.40718 10.0156 11.7544 10.0156C12.2639 10.0156 12.7509 9.92627 13.2017 9.76305L14.1622 10.7236C13.3617 12.9342 11.2437 14.5156 8.75439 14.5156C5.57875 14.5156 3.00439 11.9413 3.00439 8.76562Z" fill="#8F8F8F"/>
</svg>
