<svg width="17" height="17" viewBox="0 0 17 17" fill="none" xmlns="http://www.w3.org/2000/svg">
<path fill-rule="evenodd" clip-rule="evenodd" d="M13.245 3.1499V3.8999V4.3999H13.745H14.495V5.8999H13.745H13.245V6.3999V7.1499H11.745V6.3999V5.8999H11.245H10.495V4.3999H11.245H11.745V3.8999V3.1499H13.245ZM6.00014 5.65486C5.07913 6.43481 4.495 7.59962 4.495 8.8999C4.495 11.2471 6.39779 13.1499 8.745 13.1499C10.0453 13.1499 11.2101 12.5658 11.99 11.6448C11.9088 11.6482 11.8271 11.6499 11.745 11.6499C8.56936 11.6499 5.995 9.07553 5.995 5.89989C5.995 5.81782 5.99672 5.73613 6.00014 5.65486ZM2.995 8.8999C2.995 6.41062 4.57641 4.29261 6.78699 3.4921L7.74756 4.45265C7.58433 4.90337 7.495 5.39037 7.495 5.89989C7.495 8.2471 9.39779 10.1499 11.745 10.1499C12.2545 10.1499 12.7415 10.0606 13.1923 9.89733L14.1528 10.8579C13.3523 13.0685 11.2343 14.6499 8.745 14.6499C5.56936 14.6499 2.995 12.0755 2.995 8.8999Z" fill="#8F8F8F"/>
</svg>
