<svg width="17" height="17" viewBox="0 0 17 17" fill="none" xmlns="http://www.w3.org/2000/svg">
<path fill-rule="evenodd" clip-rule="evenodd" d="M9.50439 2.76562V2.01562H8.00439V2.76562V3.01562V3.76562H9.50439V3.01562V2.76562ZM8.75439 10.7656C9.85896 10.7656 10.7544 9.87019 10.7544 8.76562C10.7544 7.66106 9.85896 6.76562 8.75439 6.76562C7.64982 6.76562 6.75439 7.66106 6.75439 8.76562C6.75439 9.87019 7.64982 10.7656 8.75439 10.7656ZM8.75439 12.2656C10.6874 12.2656 12.2544 10.6986 12.2544 8.76562C12.2544 6.83262 10.6874 5.26562 8.75439 5.26562C6.82139 5.26562 5.25439 6.83262 5.25439 8.76562C5.25439 10.6986 6.82139 12.2656 8.75439 12.2656ZM9.50439 13.7656V14.5156V14.7656V15.5156H8.00439V14.7656V14.5156V13.7656H9.50439ZM13.7544 8.01562H14.5044H14.7544H15.5044V9.51562H14.7544H14.5044H13.7544V8.01562ZM2.75439 8.01562H2.00439V9.51562H2.75439H3.00439H3.75439V8.01562H3.00439H2.75439ZM11.7596 4.69976L12.2899 4.16944L12.4667 3.99266L12.997 3.46232L14.0577 4.52298L13.5274 5.05331L13.3506 5.23009L12.8203 5.76043L11.7596 4.69976ZM3.98142 12.4779L3.45109 13.0082L4.51175 14.0689L5.04208 13.5386L5.21886 13.3618L5.74919 12.8315L4.68853 11.7708L4.1582 12.3011L3.98142 12.4779ZM4.68853 5.76043L4.1582 5.23009L3.98142 5.05331L3.45109 4.52298L4.51175 3.46232L5.04208 3.99266L5.21886 4.16944L5.74919 4.69976L4.68853 5.76043ZM12.4667 13.5386L12.997 14.0689L14.0577 13.0082L13.5274 12.4779L13.3506 12.3011L12.8203 11.7708L11.7596 12.8315L12.2899 13.3618L12.4667 13.5386Z" fill="#111111"/>
</svg>
