<svg width="17" height="17" viewBox="0 0 17 17" fill="none" xmlns="http://www.w3.org/2000/svg">
<path fill-rule="evenodd" clip-rule="evenodd" d="M9.495 2.8999V2.1499H7.995V2.8999V3.1499V3.8999H9.495V3.1499V2.8999ZM8.745 10.8999C9.84957 10.8999 10.745 10.0045 10.745 8.8999C10.745 7.79533 9.84957 6.8999 8.745 6.8999C7.64043 6.8999 6.745 7.79533 6.745 8.8999C6.745 10.0045 7.64043 10.8999 8.745 10.8999ZM8.745 12.3999C10.678 12.3999 12.245 10.8329 12.245 8.8999C12.245 6.9669 10.678 5.3999 8.745 5.3999C6.812 5.3999 5.245 6.9669 5.245 8.8999C5.245 10.8329 6.812 12.3999 8.745 12.3999ZM9.495 13.8999V14.6499V14.8999V15.6499H7.995V14.8999V14.6499V13.8999H9.495ZM13.745 8.1499H14.495H14.745H15.495V9.6499H14.745H14.495H13.745V8.1499ZM2.745 8.1499H1.995V9.6499H2.745H2.995H3.745V8.1499H2.995H2.745ZM11.7502 4.83404L12.2805 4.30371L12.4573 4.12693L12.9876 3.5966L14.0483 4.65726L13.518 5.18759L13.3412 5.36437L12.8109 5.8947L11.7502 4.83404ZM3.97203 12.6122L3.4417 13.1425L4.50236 14.2032L5.03269 13.6729L5.20947 13.4961L5.7398 12.9658L4.67914 11.9051L4.14881 12.4354L3.97203 12.6122ZM4.67914 5.8947L4.14881 5.36437L3.97203 5.18759L3.4417 4.65726L4.50236 3.5966L5.03269 4.12693L5.20947 4.30371L5.7398 4.83404L4.67914 5.8947ZM12.4573 13.6729L12.9876 14.2032L14.0483 13.1425L13.518 12.6122L13.3412 12.4354L12.8109 11.9051L11.7502 12.9658L12.2805 13.4961L12.4573 13.6729Z" fill="#8F8F8F"/>
</svg>
