<svg width="12" height="13" viewBox="0 0 12 13" fill="none" xmlns="http://www.w3.org/2000/svg">
<path fill-rule="evenodd" clip-rule="evenodd" d="M0.504395 3.76562C0.504395 1.9707 1.95946 0.515625 3.75439 0.515625H8.25439C10.0493 0.515625 11.5044 1.9707 11.5044 3.76562V11.7656V12.5156H10.7544H1.25439H0.504395V11.7656V3.76562ZM3.75439 2.01562C2.78789 2.01562 2.00439 2.79912 2.00439 3.76562V11.0156H10.0044V3.76562C10.0044 2.79912 9.22089 2.01562 8.25439 2.01562H3.75439ZM3.00439 4.01562C3.00439 3.46335 3.45211 3.01562 4.00439 3.01562H8.00439C8.55667 3.01562 9.00439 3.46335 9.00439 4.01562V7.51562H3.00439V4.01562ZM6.50439 10.0156H9.00439V8.51562H6.50439V10.0156Z" fill="#8F8F8F"/>
</svg>
