<svg width="17" height="17" viewBox="0 0 17 17" fill="none" xmlns="http://www.w3.org/2000/svg">
<path fill-rule="evenodd" clip-rule="evenodd" d="M3.495 5.8999C3.495 4.10497 4.95007 2.6499 6.745 2.6499H11.245C13.0399 2.6499 14.495 4.10497 14.495 5.8999V13.8999V14.6499H13.745H4.245H3.495V13.8999V5.8999ZM6.745 4.1499C5.7785 4.1499 4.995 4.9334 4.995 5.8999V13.1499H12.995V5.8999C12.995 4.9334 12.2115 4.1499 11.245 4.1499H6.745ZM5.995 6.1499C5.995 5.59762 6.44272 5.1499 6.995 5.1499H10.995C11.5473 5.1499 11.995 5.59762 11.995 6.1499V9.6499H5.995V6.1499ZM9.495 12.1499H11.995V10.6499H9.495V12.1499Z" fill="#FAFAFA"/>
</svg>
