<svg xmlns="http://www.w3.org/2000/svg" xmlns:xlink="http://www.w3.org/1999/xlink" width="512" zoomAndPan="magnify" viewBox="0 0 384 383.999986" height="512" preserveAspectRatio="xMidYMid meet" version="1.0"><defs><clipPath id="4644922b86"><path d="M 98.523438 92.988281 L 290.976562 92.988281 L 290.976562 261.140625 L 98.523438 261.140625 Z M 98.523438 92.988281 " clip-rule="nonzero"/></clipPath><clipPath id="b39a7d7b2c"><path d="M 194.609375 92.988281 L 290.695312 261.140625 L 98.523438 261.140625 Z M 194.609375 92.988281 " clip-rule="nonzero"/></clipPath></defs><path fill="#000000" d="M 173.25 0.824219 C 135.601562 4.949219 100.199219 19.5 71.625 42.523438 C 61.949219 50.324219 46.125 66.601562 39.148438 75.898438 C 19.273438 102.449219 6.601562 132.75 1.800781 165.375 C 0.148438 176.398438 -0.375 197.476562 0.675781 208.5 C 3.824219 240.976562 14.175781 270.976562 31.050781 296.550781 C 62.101562 343.726562 109.574219 373.949219 165.375 382.199219 C 176.398438 383.851562 197.476562 384.375 208.5 383.324219 C 240.976562 380.175781 270.976562 369.824219 296.550781 352.949219 C 343.726562 321.898438 373.949219 274.425781 382.199219 218.625 C 383.851562 207.601562 384.375 186.523438 383.324219 175.5 C 379.5 136.199219 365.476562 101.398438 341.476562 71.625 C 333.675781 61.949219 317.398438 46.125 308.101562 39.148438 C 281.550781 19.273438 251.476562 6.75 218.625 1.800781 C 209.550781 0.449219 182.101562 -0.148438 173.25 0.824219 Z M 241.425781 176.925781 C 267.449219 222.449219 288.75 259.800781 288.75 259.949219 C 288.75 260.101562 246.074219 260.25 193.875 260.25 C 141.675781 260.25 99 260.101562 99 259.875 C 99 259.273438 193.726562 93.675781 193.949219 93.976562 C 194.023438 94.050781 215.476562 131.398438 241.425781 176.925781 Z M 241.425781 176.925781 " fill-opacity="1" fill-rule="nonzero"/><g clip-path="url(#4644922b86)"><g clip-path="url(#b39a7d7b2c)"><path fill="#ffffff" d="M 98.523438 92.988281 L 290.976562 92.988281 L 290.976562 261.140625 L 98.523438 261.140625 Z M 98.523438 92.988281 " fill-opacity="1" fill-rule="nonzero"/></g></g></svg>