<svg width="92" height="19" viewBox="0 0 92 19" fill="none" xmlns="http://www.w3.org/2000/svg">
<g clip-path="url(#clip0_7_603)">
<g clip-path="url(#clip1_7_603)">
<g clip-path="url(#clip2_7_603)">
<path fill-rule="evenodd" clip-rule="evenodd" d="M21.3738 18.3653L11.0241 0.365723L0.674316 18.3653H21.3738ZM31.8126 17.5459L40.462 1.18389H36.7208L30.7543 13.0665L24.7877 1.18389H21.0465L29.6959 17.5459H31.8126ZM90.7579 1.18389V17.5459H87.6606V1.18389H90.7579ZM73.5174 11.4389C73.5174 10.1638 73.7836 9.04223 74.3156 8.07434C74.848 7.10645 75.5901 6.3613 76.542 5.83897C77.4936 5.3166 78.6068 5.05543 79.8813 5.05543C81.0104 5.05543 82.0267 5.30123 82.9301 5.79286C83.8336 6.28449 84.5511 7.01427 85.0835 7.98216C85.6159 8.95005 85.89 10.133 85.9063 11.5311V12.2455H76.784C76.8484 13.2595 77.1468 14.0584 77.6791 14.6422C78.2278 15.2106 78.9616 15.4949 79.8813 15.4949C80.4618 15.4949 80.9942 15.3412 81.4781 15.034C81.9623 14.7267 82.3251 14.3119 82.567 13.7895L85.737 14.02C85.3497 15.1722 84.6238 16.094 83.5591 16.7854C82.4944 17.4767 81.2687 17.8224 79.8813 17.8224C78.6068 17.8224 77.4936 17.5612 76.542 17.0389C75.5901 16.5165 74.848 15.7714 74.3156 14.8035C73.7836 13.8356 73.5174 12.7141 73.5174 11.4389ZM82.7124 10.2867C82.5992 9.28803 82.2849 8.55828 81.7685 8.09739C81.2524 7.62113 80.6231 7.38298 79.8813 7.38298C79.0263 7.38298 78.3326 7.63646 77.8003 8.14346C77.2679 8.65046 76.9373 9.36487 76.8082 10.2867H82.7124ZM68.292 8.09739C68.8081 8.51218 69.1307 9.08834 69.2598 9.82576L72.4541 9.66446C72.3412 8.72727 72.0103 7.91303 71.462 7.22168C70.9134 6.53032 70.2038 6.00027 69.3325 5.63156C68.4776 5.24748 67.534 5.05543 66.5014 5.05543C65.2269 5.05543 64.114 5.3166 63.1621 5.83897C62.2102 6.3613 61.4685 7.10645 60.9361 8.07434C60.4037 9.04223 60.1375 10.1638 60.1375 11.4389C60.1375 12.7141 60.4037 13.8356 60.9361 14.8035C61.4685 15.7714 62.2102 16.5165 63.1621 17.0389C64.114 17.5612 65.2269 17.8224 66.5014 17.8224C67.5662 17.8224 68.534 17.6304 69.4052 17.2463C70.2761 16.8468 70.9861 16.2861 71.5344 15.564C72.083 14.8419 72.4136 13.9969 72.5264 13.029L69.3083 12.8908C69.1955 13.705 68.8808 14.3349 68.3647 14.7804C67.8483 15.2106 67.2273 15.4257 66.5014 15.4257C65.5014 15.4257 64.7271 15.08 64.1784 14.3887C63.6301 13.6973 63.3556 12.7141 63.3556 11.4389C63.3556 10.1638 63.6301 9.18051 64.1784 8.48916C64.7271 7.7978 65.5014 7.45211 66.5014 7.45211C67.1951 7.45211 67.7918 7.6672 68.292 8.09739ZM52.5798 5.33142H55.4622L55.5452 7.68219C55.7498 7.01676 56.0343 6.50004 56.3988 6.13198C56.927 5.59826 57.6636 5.33142 58.6083 5.33142H59.7852V7.84751H58.5844C57.9118 7.84751 57.3594 7.939 56.927 8.12197C56.5106 8.30497 56.1904 8.5947 55.9665 8.99117C55.7581 9.38765 55.6543 9.89087 55.6543 10.5008V17.5459H52.5798V5.33142ZM39.2854 8.07434C38.753 9.04223 38.4869 10.1638 38.4869 11.4389C38.4869 12.7141 38.753 13.8356 39.2854 14.8035C39.8178 15.7714 40.5599 16.5165 41.5115 17.0389C42.4634 17.5612 43.5762 17.8224 44.8507 17.8224C46.2381 17.8224 47.4641 17.4767 48.5289 16.7854C49.5933 16.094 50.3195 15.1722 50.7065 14.02L47.5368 13.7895C47.2945 14.3119 46.9318 14.7267 46.4478 15.034C45.9639 15.3412 45.4316 15.4949 44.8507 15.4949C43.9314 15.4949 43.1972 15.2106 42.6489 14.6422C42.1165 14.0584 41.8182 13.2595 41.7534 12.2455H50.8757V11.5311C50.8598 10.133 50.5857 8.95005 50.0533 7.98216C49.5209 7.01427 48.803 6.28449 47.8996 5.79286C46.9961 5.30123 45.9799 5.05543 44.8507 5.05543C43.5762 5.05543 42.4634 5.3166 41.5115 5.83897C40.5599 6.3613 39.8178 7.10645 39.2854 8.07434ZM46.7383 8.09739C47.2544 8.55828 47.569 9.28803 47.6818 10.2867H41.7777C41.9068 9.36487 42.2373 8.65046 42.7697 8.14346C43.3021 7.63646 43.9958 7.38298 44.8507 7.38298C45.5929 7.38298 46.2218 7.62113 46.7383 8.09739Z" fill="black"/>
</g>
</g>
</g>
<defs>
<clipPath id="clip0_7_603">
<rect width="90.69" height="18" fill="white" transform="translate(0.674316 0.365479)"/>
</clipPath>
<clipPath id="clip1_7_603">
<rect width="90.69" height="18" fill="white" transform="translate(0.674316 0.365479)"/>
</clipPath>
<clipPath id="clip2_7_603">
<rect width="90.69" height="17.9995" fill="white" transform="translate(0.674316 0.365723)"/>
</clipPath>
</defs>
</svg>
